<svg xmlns="http://www.w3.org/2000/svg" viewBox="0 0 221.04 82.92"><defs><style>.cls-1{isolation:isolate;}.cls-2{fill:#c7c8ca;mix-blend-mode:multiply;}.cls-3{fill:#fff;}.cls-4{fill:#ce0f46;}.cls-5{fill:#231f20;}</style></defs><title>Kelloggs-logo</title><g class="cls-1"><g id="Layer_1" data-name="Layer 1"><path class="cls-2" d="M928.89,457.32c0.09,6-1.55,10.94-4.77,14.2-2.87,2.92-6.78,4.4-11.6,4.4a11.91,11.91,0,0,1-10.09-4.9c-2.23,1.56-4.25,2.87-6,3.84l-0.39.7c-4.55,8.06-11.44,20.23-23.32,20.23-6.83,0-10.51-4.75-10.51-9.22,0-.35,0-0.71,0-1.05-4.91,6.57-10.27,10.36-17.69,10.36-7,0-10.72-4.82-10.72-9.35,0-5.26,3.57-10.46,9.8-14.24,0.75-.46,1.58-0.91,2.43-1.35a9.44,9.44,0,0,1-1.43-2c-3.47,4.08-8,7.13-13.58,7.13a10.68,10.68,0,0,1-7-2.57,15.71,15.71,0,0,1-8.86,2.88,11.46,11.46,0,0,1-9-4.43c-3.19,2-6.86,3.65-10.76,3.65a14,14,0,0,1-9.43-3.39,22.45,22.45,0,0,1-12.43,3.87,15,15,0,0,1-9-2.88,11.3,11.3,0,0,1-2.23.24h-0.19c0,0.17,0,.31.05,0.44a4.81,4.81,0,0,1,2.33,1.75,5,5,0,0,1,.73,4.28l0,0.16c-1.43,4.37-6.16,5.92-9.76,5.92h0c-5,0-12.42-4-12.42-12.53,0-.15,0-0.3,0-0.44-2.74,3.73-6.5,7.29-11.68,7.29a9.31,9.31,0,0,1-9.56-9.49c0-4.79,2.92-8,6.87-11.76a8.24,8.24,0,0,1-5.42-7.83c0-6.9,5.66-11,18.36-17.52l26,13H905.35l-0.73-5.09a6.91,6.91,0,0,1-1.2-4.7c0.5-4.65,5.13-8.73,9.91-8.73a8.33,8.33,0,0,1,6.27,2.69,8.83,8.83,0,0,1,2.15,6.8,11.72,11.72,0,0,1-.42,2.15Z" transform="translate(-721.8 -412.96)"/><path class="cls-3" d="M932.64,438.38a9.24,9.24,0,0,0-4.8-1.24,12.14,12.14,0,0,0-4.94,1.1,11.67,11.67,0,0,0,.41-2.15,8.83,8.83,0,0,0-2.15-6.8,8.33,8.33,0,0,0-6.27-2.69c-4.78,0-9.41,4.08-9.91,8.73a6.92,6.92,0,0,0,1.2,4.7,6.25,6.25,0,0,0-.59,1.2,5.84,5.84,0,0,0-.77-1,7.12,7.12,0,0,0-5.26-1.95c-5,0-10.78,2.61-15.65,6.44a6.38,6.38,0,0,0-1-2.16,6.28,6.28,0,0,0-5.29-2.66,9.73,9.73,0,0,0-3.75.83,7.23,7.23,0,0,0-5.33-2.2,10,10,0,0,0-4,.88l-1.88.83c-2.68,1.2-3.9,1.74-5.87,1.74a7,7,0,0,1-3.27-.73l-0.4-.17a8.89,8.89,0,0,0-6.3-.34l-0.09,0a7,7,0,0,0-4.58-1.51,12,12,0,0,0-2.07.19c3.51-5.4,6.14-11.14,6.35-16.38a8.22,8.22,0,0,0-2.11-6.27,7.47,7.47,0,0,0-5.58-2.23c-5.69,0-11.87,5.06-16.67,10.18a6.86,6.86,0,0,0-1.59-2.67,7.87,7.87,0,0,0-5.9-2.24c-7.75,0-16.09,7.63-20.87,14.16a57.26,57.26,0,0,0-4.64,7.48,9.11,9.11,0,0,0-6.3-3.16c4.42-3.86,7.86-7.39,9-9.11,3.45-5.43,2.83-11.64-1.47-14.75a7.9,7.9,0,0,0-4.67-1.49c-4.65,0-8.77,3.55-11.08,6.88-2,2.89-3.8,5.37-5.45,7.55a5.94,5.94,0,0,0-.58-2.12,6.19,6.19,0,0,0-5.74-3.31,10.79,10.79,0,0,0-6,2.05,130.76,130.76,0,0,1-13.57,8.14c-12.7,6.54-18.36,10.63-18.36,17.52a8.24,8.24,0,0,0,5.42,7.83c-3.95,3.72-6.87,7-6.87,11.76a9.31,9.31,0,0,0,9.55,9.49c5.18,0,8.94-3.55,11.68-7.28,0,0.15,0,.29,0,0.44,0,8.53,7.41,12.52,12.42,12.53h0c3.61,0,8.33-1.55,9.76-5.92l0-.16a5,5,0,0,0-.73-4.28,4.78,4.78,0,0,0-2.33-1.75c0-.13,0-0.27,0-0.44h0.19a11.38,11.38,0,0,0,2.23-.24,15.06,15.06,0,0,0,9,2.87,22.44,22.44,0,0,0,12.43-3.87,14,14,0,0,0,9.43,3.39c3.9,0,7.57-1.63,10.76-3.65a11.45,11.45,0,0,0,9,4.43,15.71,15.71,0,0,0,8.86-2.88,10.7,10.7,0,0,0,7,2.57c5.59,0,10.11-3,13.58-7.14a9.3,9.3,0,0,0,1.43,2c-0.86.44-1.68,0.89-2.43,1.35-6.23,3.79-9.8,9-9.8,14.24,0,4.53,3.75,9.35,10.72,9.35,7.42,0,12.78-3.8,17.69-10.36,0,0.35,0,.7,0,1.05,0,4.47,3.68,9.22,10.51,9.22,11.89,0,18.77-12.18,23.32-20.23l0.4-.7c1.7-1,3.72-2.28,6-3.84a11.91,11.91,0,0,0,10.09,4.9c4.83,0,8.73-1.48,11.6-4.4,3.21-3.26,4.86-8.17,4.77-14.2a41.84,41.84,0,0,0-.34-4.42v-0.08c3.41-.41,4.93-2.11,5.6-3.7C935.71,447.55,937.52,441.52,932.64,438.38Z" transform="translate(-721.8 -412.96)"/><path class="cls-4" d="M927.86,441.38c-3.67,0-7,2.95-11.13,6.38-3.8,3.15-11.56,11.12-18.64,15.65,2-3.1,6.73-9.8,7.45-12.93,0.75-3.3-1.66-4.57-5-2.54-3.62,2.21-7.08,12.94-12.19,12.94a1.39,1.39,0,0,1-1.58-1.51c0-3.14,4.89-9.41,13.63-12.85a2.52,2.52,0,0,0,1.88-2.17c0-.24,0-1.84-2.73-1.84-8.63,0-20.28,10.06-21.91,17.78a28,28,0,0,1-8.54,5.82c4.33-6.12,8.06-11.05,10-16.16,2.28-5.95-.93-6.74-4.23-5s-5.46,6.4-6.4,8.19-1.73,4.06-4.56,6.32-5.74,1.88-3.67-2.54a24.53,24.53,0,0,1,9.58-10c0.85-.45,1.59-0.72,1.57-1.86,0-1.81-2.14-3.06-5.13-1.77-4.06,1.75-6,2.93-9.44,2.93a11.7,11.7,0,0,1-5.31-1.23,4.55,4.55,0,0,0-3.31-.23,5.64,5.64,0,0,0-2.15,1.51,5.36,5.36,0,0,0-1.17,2.31c-0.81,4.83-5,13.49-8.15,13.49-1.08,0-2.26-.31-2-2.77,0.5-4,5.37-9.5,6.5-10.59s3.26-1.84,3.41-3.05c0.13-1-.49-2.15-2.5-2.15-6.58,0-15.37,9.11-16.24,17.3a5.66,5.66,0,0,1-3.65,1.88c-3,0-3.89-2.83-3.68-5.09,8-7.2,23.15-23.26,23.61-34.68,0.11-2.74-1.22-4.1-3.46-4.1-5.65,0-13.55,8.23-18.46,14.59a59.91,59.91,0,0,0-11.08,24.41c-4.43,3.84-6.22,4.08-8.14,4.08a3.22,3.22,0,0,1-3.52-3.46c7.46-6.77,20.43-22.9,20.69-30.88,0.08-2.37-1.26-3.48-3.65-3.48-5.08,0-12.28,5.37-17.46,12.43a50.7,50.7,0,0,0-9.47,22.89c-3.88,3.48-6.77,4.18-9.16,4.18a3.52,3.52,0,0,1-2.76-1.43c3.43-2,11.24-6.94,11.24-14.32,0-3.67-2.48-5.31-4.94-5.31-6.28,0-16.13,7.81-16.07,18.58a10.82,10.82,0,0,0,.07,1.09c-2.84,1-4.8,2-4.35,4,0.41,1.85,2.71,1.75,5.71.7,0.68,1.28,3.62,3.39,7.75,3.39,5.6,0,9.89-2.66,13.27-5.55,1.42,3.33,4.91,5.07,8.59,5.07,4.44,0,8.85-3,12.32-5.74,0.4,2.54,3,6.51,7.49,6.51,4.1,0,7.23-2.38,9.7-5a6.24,6.24,0,0,0,6.15,4.65c10.37,0,16.18-14.68,17.53-19.94a0.94,0.94,0,0,1,1.25-.66,9.62,9.62,0,0,0,5.31.73c-4,3.1-7.43,8.39-7.43,12.25a5.7,5.7,0,0,0,5.79,5.65c2.45,0,5.69-1.58,7.82-3.57a15.18,15.18,0,0,1-2.55,4.09,64.71,64.71,0,0,0-12.94,5.51c-3.95,2.4-7.76,6.22-7.76,10.62,0,2.35,1.93,5.11,6.48,5.11,7.62,0,13-5,20.17-18.07a44.82,44.82,0,0,0,11.88-6.82,5.59,5.59,0,0,0,5,2.62c2.92,0,4.68-.85,7-2.54a14.09,14.09,0,0,1-1.65,3.08,108.5,108.5,0,0,0-12,5.69c-7,4.21-8.54,8-8.54,11,0,1.82,1.56,5,6.27,5,10.2,0,16.5-12.66,20.62-19.83a95.74,95.74,0,0,0,11.75-7.95,6,6,0,0,0-.23,1.74c0,3.17,2.89,6.16,7.62,6.16,9.34,0,12.25-6.87,12.13-14.29,0-2.43-.4-4.37-0.44-5.23-0.09-2.26.66-3.49,2.73-3.49S932,446.74,932,445c0-2.45-1.75-3.58-4.14-3.58m-94.13-13.16c0.27,0,.38.24,0.37,0.6-0.08,2.92-7.61,14.75-14.57,21.62,4.19-12.31,12.56-22.23,14.21-22.23m-59.56,29.65c0.3-5.25,4.47-9.3,6.11-9.3a0.87,0.87,0,0,1,.89,1.07c0,1.87-2.52,5.78-7,8.22m35.39-25.3c0.31,0,.45.24,0.44,0.64-0.06,2.16-5.48,12.09-12.44,19,3.66-11.16,9.61-19.6,12-19.6m38.07,50.82a0.76,0.76,0,0,1-.8-0.86c0-3.2,7.09-7,10.81-8.33-1.6,2.59-7.49,9.19-10,9.19M876,483.56a0.68,0.68,0,0,1-.71-0.82c0-2.83,6.42-7.19,10.14-8.55-1.93,3.35-7.3,9.37-9.43,9.37m38.74-20.28c-0.45,0-1.12-.1-1.12-1.61a2.15,2.15,0,0,0-2.43-2.3,5.15,5.15,0,0,0-.85.07c4.08-3.23,7.26-6.78,10.23-9.18-0.61,7.34-2.36,13-5.82,13M911.19,440c0.13-1.25-2.21-2-2-4.25a6.16,6.16,0,0,1,5.69-4.94,4.15,4.15,0,0,1,4.2,4.84c-0.5,5.15-6.23,8.45-8.37,8.47a1,1,0,0,1-1.24-1.1c0.12-1.15,1.56-1.73,1.7-3m-149,36.27a0.67,0.67,0,0,1,.59.91c-0.71,2.17-3.58,3-5.74,3-2.35,0-8.19-2-8.19-8.29,0-7.72,4.09-13.25,4.77-17.82,0.38-2.54-.32-3.79-1.46-4.39-1.08,2.07-6.23,11.66-7.16,13.19-2.34,3.84-6.24,11.62-12.08,11.62a5.08,5.08,0,0,1-5.31-5.25c0-5.22,6.19-8.5,13.77-16.68C746.59,447,750,442,750,440.29c0-.54-0.2-0.72-0.48-0.72-0.87,0-3.09,1.92-4,2.8-2.45,2.25-7.47,11.31-12.55,11.31a3.87,3.87,0,0,1-3.84-4c0-4,3.12-7.08,16.06-13.75a135.1,135.1,0,0,0,14-8.43c3.8-2.63,7.7-1.08,4.54,3.09C761,434.07,754,445.66,754,445.66c1.85-.26,3.72-0.31,7.55-3.65,4.91-4.27,9.28-9.35,16.5-19.76,2.62-3.77,7.06-6.35,9.79-4.38s2.36,5.93.38,9-17.36,17.32-27.74,21.5c2.73,2.8,2.42,7.68,1.66,10.7s-2.63,9.32-2.63,12.23c0,2.66.86,4.84,2.7,4.94" transform="translate(-721.8 -412.96)"/><path class="cls-5" d="M940.57,444.06a2.27,2.27,0,1,1,2.27-2.27A2.19,2.19,0,0,1,940.57,444.06Zm0-4a1.74,1.74,0,0,0,0,3.48h0A1.75,1.75,0,0,0,940.57,440.05Zm-0.38,3h-0.52v-2.44h0.91c0.63,0,1,.18,1,0.74a0.57,0.57,0,0,1-.59.64l0.62,1.07H941l-0.56-1h-0.25v1Zm0.46-1.44c0.23,0,.37,0,0.37-0.32s-0.27-.27-0.47-0.27h-0.37v0.59h0.46Z" transform="translate(-721.8 -412.96)"/></g></g></svg>