<svg id="Layer_1" data-name="Layer 1" xmlns="http://www.w3.org/2000/svg" viewBox="0 0 446.2 67.68"><defs><style>.cls-1{fill:#fff;}</style></defs><title>logo-white-outlines</title><path class="cls-1" d="M21,71.26A64.47,64.47,0,0,1,4.77,69.1l1.17-8.82a63.32,63.32,0,0,0,15.21,2.07c8.1,0,11.79-3,11.79-8.1,0-4.77-2.34-6.48-13.14-12C7.92,36.16,4,32.74,4,23.2c0-10.26,6.66-17,22.5-17a51.93,51.93,0,0,1,14,1.89L39.33,16.9a46,46,0,0,0-13-1.8C18.45,15.1,15,17.71,15,22.21s2.52,6.21,12.78,11.43C40.5,40.21,44.1,43.27,44.1,52.9,44.1,64.33,37,71.26,21,71.26Z" transform="translate(-4.05 -3.58)"/><path class="cls-1" d="M102.78,70V41.47c0-5.85-1.89-7.65-5.49-7.65-2.7,0-5.85,1.44-10.26,4.32a16,16,0,0,1,.18,3.15V70H75.6V41.47c0-5.85-1.89-7.65-5.31-7.65-2.79,0-5.94,1.44-10.17,4.23V70H48.51V25.36H58l.72,4.5c5.31-3.42,10-5.4,15.39-5.4,6.48,0,9.54,2.52,11.25,5.67,5.85-3.69,10.44-5.67,15.93-5.67,8.91,0,13,4.41,13,14.76V70Z" transform="translate(-4.05 -3.58)"/><path class="cls-1" d="M144.63,66.13c-4.32,2.61-8.28,4.86-13.68,4.86-7.47,0-12.78-4.32-12.78-13.23,0-9.45,5.85-15.21,21.42-15.21h3.6V39.22c0-4-2-6-7.38-6a61,61,0,0,0-12.6,1.53l-1.08-8.46a68.44,68.44,0,0,1,15.66-2c12.78,0,17,4.23,17,14.31V70h-9.54Zm-1.44-16h-3c-8.91,0-11.7,2.25-11.7,6.75,0,3.87,2.07,5.58,5.13,5.58,3.24,0,5.76-1.53,9.54-4Z" transform="translate(-4.05 -3.58)"/><path class="cls-1" d="M187,35.62a8.87,8.87,0,0,0-4.86-1.44c-2.25,0-5.22,1.62-8.73,3.69V70H161.82V25.36h9.54l.72,4.5c3.87-3.15,7.38-5.85,11.07-5.85a10.16,10.16,0,0,1,5.31,1.35Z" transform="translate(-4.05 -3.58)"/><path class="cls-1" d="M221.67,69.91a41.09,41.09,0,0,1-10.26,1.26c-9.27,0-12.69-2.88-12.69-12.69V34.09h-6.48V25.36h6.48V11.86l11.7-1.53v15h10.26v8.73H210.42V56.32c0,4.59,1.26,6.12,4.23,6.12a23.9,23.9,0,0,0,6-.9Z" transform="translate(-4.05 -3.58)"/><path class="cls-1" d="M258.92,70,244.35,42.46H240V70H228.24V7.45H247.5c17,0,22.77,3.51,22.77,16.47,0,9.54-4.14,15-14,16.83L272.33,70Zm-11.7-53.64H240V33.55h7.2c9,0,11.43-3.06,11.43-9.27C258.66,18.25,256,16.36,247.23,16.36Z" transform="translate(-4.05 -3.58)"/><path class="cls-1" d="M299.88,66.13C295.55,68.74,291.59,71,286.2,71c-7.47,0-12.78-4.32-12.78-13.23,0-9.45,5.85-15.21,21.42-15.21h3.6V39.22c0-4-2-6-7.38-6a61,61,0,0,0-12.6,1.53l-1.08-8.46a68.45,68.45,0,0,1,15.66-2c12.78,0,17,4.23,17,14.31V70H300.5Zm-1.44-16h-3c-8.91,0-11.7,2.25-11.7,6.75,0,3.87,2.07,5.58,5.13,5.58,3.24,0,5.76-1.53,9.54-4Z" transform="translate(-4.05 -3.58)"/><path class="cls-1" d="M346.13,69.37a45.47,45.47,0,0,1-11.79,1.71c-13.23,0-19.62-4.77-19.62-23.13s8.19-23.58,20.34-23.58a47.33,47.33,0,0,1,11.43,1.53l-1,8.55a34.93,34.93,0,0,0-9.27-1.26c-6.12,0-9.81,2.43-9.81,14.49s2.7,14.49,9.9,14.49a37.65,37.65,0,0,0,9-1.35Z" transform="translate(-4.05 -3.58)"/><path class="cls-1" d="M377.54,70,363.32,48V70H351.71V3.58h11.61V45.16L378,25.36h13L375,46l16.29,24Z" transform="translate(-4.05 -3.58)"/><path class="cls-1" d="M397.39,70.5c-3.78,0-4.72-1-4.72-4.54s.95-4.54,4.72-4.54,4.66,1.07,4.66,4.54S401.11,70.5,397.39,70.5Z" transform="translate(-4.05 -3.58)"/><path class="cls-1" d="M410.05,33c-3.72,0-4.73-1-4.73-4.47s1-4.41,4.73-4.41,4.6.95,4.6,4.41S413.71,33,410.05,33ZM406,70V38.75h8.13V70Z" transform="translate(-4.05 -3.58)"/><path class="cls-1" d="M435.75,70.95c-9.2,0-14.24-3.34-14.24-16.38S426.93,37.81,436,37.81s14.24,3.34,14.24,16.38S444.83,70.95,435.75,70.95Zm.06-26.9c-4.28,0-6.11,1.83-6.11,10.27s1.89,10.4,6.17,10.4,6.17-1.76,6.17-10.27S440.17,44,435.82,44Z" transform="translate(-4.05 -3.58)"/></svg>