<?xml version="1.0" encoding="utf-8"?>
<!-- Generator: Adobe Illustrator 21.1.0, SVG Export Plug-In . SVG Version: 6.00 Build 0)  -->
<!DOCTYPE svg PUBLIC "-//W3C//DTD SVG 1.1//EN" "http://www.w3.org/Graphics/SVG/1.1/DTD/svg11.dtd">
<svg version="1.1" id="Layer_1" xmlns="http://www.w3.org/2000/svg" xmlns:xlink="http://www.w3.org/1999/xlink" x="0px" y="0px"
	 viewBox="0 0 446.2 67.7" style="enable-background:new 0 0 446.2 67.7;" xml:space="preserve">
<style type="text/css">
	.st0{fill:#DB1F26;}
</style>
<title>logo-red-outlines</title>
<path class="st0" d="M17,67.7c-5.5,0-10.9-0.8-16.2-2.2l1.2-8.8c5,1.3,10.1,2,15.2,2.1c8.1,0,11.8-3,11.8-8.1c0-4.8-2.3-6.5-13.1-12
	c-11.9-6.1-15.8-9.5-15.8-19c0-10.3,6.7-17,22.5-17c4.7,0,9.4,0.6,14,1.9l-1.2,8.8c-4.2-1.2-8.6-1.8-13-1.8
	c-7.9,0-11.3,2.6-11.3,7.1s2.5,6.2,12.8,11.4C36.5,36.6,40,39.7,40,49.3C40,60.8,33,67.7,17,67.7z"/>
<path class="st0" d="M98.7,66.4V37.9c0-5.8-1.9-7.6-5.5-7.6c-2.7,0-5.8,1.4-10.3,4.3c0.2,1,0.2,2.1,0.2,3.2v28.7H71.5V37.9
	c0-5.8-1.9-7.6-5.3-7.6c-2.8,0-5.9,1.4-10.2,4.2v31.9H44.5V21.8H54l0.7,4.5c5.3-3.4,10-5.4,15.4-5.4c6.5,0,9.5,2.5,11.2,5.7
	c5.8-3.7,10.4-5.7,15.9-5.7c8.9,0,13,4.4,13,14.8v30.8H98.7z"/>
<path class="st0" d="M140.6,62.5c-4.3,2.6-8.3,4.9-13.7,4.9c-7.5,0-12.8-4.3-12.8-13.2c0-9.5,5.8-15.2,21.4-15.2h3.6v-3.3
	c0-4-2-6-7.4-6c-4.2,0.1-8.5,0.6-12.6,1.5l-1.1-8.5c5.1-1.3,10.4-1.9,15.7-2c12.8,0,17,4.2,17,14.3v31.4h-9.5L140.6,62.5z
	 M139.1,46.5h-3c-8.9,0-11.7,2.2-11.7,6.8c0,3.9,2.1,5.6,5.1,5.6c3.2,0,5.8-1.5,9.5-4L139.1,46.5z"/>
<path class="st0" d="M182.9,32c-1.4-0.9-3.1-1.4-4.9-1.4c-2.2,0-5.2,1.6-8.7,3.7v32.1h-11.6V21.8h9.5l0.7,4.5
	c3.9-3.1,7.4-5.9,11.1-5.9c1.9,0,3.7,0.4,5.3,1.4L182.9,32z"/>
<path class="st0" d="M217.6,66.3c-3.4,0.9-6.8,1.3-10.3,1.3c-9.3,0-12.7-2.9-12.7-12.7V30.5h-6.5v-8.7h6.5V8.3l11.7-1.5v15h10.3v8.7
	h-10.3v22.3c0,4.6,1.3,6.1,4.2,6.1c2,0,4-0.3,6-0.9L217.6,66.3z"/>
<path class="st0" d="M254.9,66.4l-14.6-27.5h-4.4v27.5h-11.8V3.9h19.3c17,0,22.8,3.5,22.8,16.5c0,9.5-4.1,15-14,16.8l16.1,29.2
	H254.9z M243.2,12.8h-7.2V30h7.2c9,0,11.4-3.1,11.4-9.3C254.6,14.7,251.9,12.8,243.2,12.8L243.2,12.8z"/>
<path class="st0" d="M295.8,62.5c-4.3,2.6-8.3,4.9-13.7,4.9c-7.5,0-12.8-4.3-12.8-13.2c0-9.5,5.9-15.2,21.4-15.2h3.6v-3.3
	c0-4-2-6-7.4-6c-4.2,0.1-8.5,0.6-12.6,1.5l-1.1-8.5c5.1-1.3,10.4-1.9,15.7-2c12.8,0,17,4.2,17,14.3v31.4h-9.5L295.8,62.5z
	 M294.4,46.5h-3c-8.9,0-11.7,2.2-11.7,6.8c0,3.9,2.1,5.6,5.1,5.6c3.2,0,5.8-1.5,9.5-4L294.4,46.5z"/>
<path class="st0" d="M342.1,65.8c-3.8,1.1-7.8,1.7-11.8,1.7c-13.2,0-19.6-4.8-19.6-23.1s8.2-23.6,20.3-23.6c3.9,0,7.7,0.6,11.4,1.5
	l-1,8.5c-3-0.8-6.1-1.3-9.3-1.3c-6.1,0-9.8,2.4-9.8,14.5s2.7,14.5,9.9,14.5c3-0.1,6.1-0.5,9-1.3L342.1,65.8z"/>
<path class="st0" d="M373.5,66.4l-14.2-22v22h-11.6V0h11.6v41.6L374,21.8h13l-16,20.6l16.3,24H373.5z"/>
<path class="st0" d="M393.3,66.9c-3.8,0-4.7-1-4.7-4.5s1-4.5,4.7-4.5s4.7,1.1,4.7,4.5S397.1,66.9,393.3,66.9z"/>
<path class="st0" d="M406,29.4c-3.7,0-4.7-1-4.7-4.5s1-4.4,4.7-4.4s4.6,1,4.6,4.4S409.7,29.4,406,29.4z M402,66.4V35.2h8.1v31.2H402
	z"/>
<path class="st0" d="M431.7,67.4c-9.2,0-14.2-3.3-14.2-16.4s5.4-16.8,14.5-16.8s14.2,3.3,14.2,16.4S440.8,67.4,431.7,67.4z
	 M431.8,40.5c-4.3,0-6.1,1.8-6.1,10.3s1.9,10.4,6.2,10.4s6.2-1.8,6.2-10.3S436.1,40.4,431.8,40.5L431.8,40.5z"/>
</svg>
